<svg width="36" height="36" fill="none" xmlns="http://www.w3.org/2000/svg"><path d="M33.75 26.595v-11.25a2.625 2.625 0 0 0-2.625-2.625H27.75v6.78a4.5 4.5 0 0 1-4.5 4.5h-6.96l-2.782 2.782a2.625 2.625 0 0 0 2.617 2.438h5.963a.731.731 0 0 1 .525.225l2.745 2.752a2.163 2.163 0 0 0 3.69-1.537l-.015-1.44h2.092a2.625 2.625 0 0 0 2.625-2.625Z" fill="#fff"/><path d="M9.398 26.64a2.4 2.4 0 0 0 2.662-.525l3.495-3.502a.352.352 0 0 1 .263-.113h7.432a3 3 0 0 0 3-3V6a3 3 0 0 0-3-3h-18a3 3 0 0 0-3 3v13.5a3 3 0 0 0 3 3h2.28a.379.379 0 0 1 .27.113.37.37 0 0 1 .105.262l-.008 1.508a2.387 2.387 0 0 0 1.5 2.257Zm4.852-8.078a1.313 1.313 0 1 1 1.313-1.312 1.319 1.319 0 0 1-1.313 1.313ZM12.203 8.056a3.2 3.2 0 0 1 2.617-.69 3.188 3.188 0 0 1 .645 6.082.525.525 0 0 0-.277.488v.69a.938.938 0 0 1-1.876 0v-.69a2.365 2.365 0 0 1 1.44-2.22 1.315 1.315 0 0 0-.502-2.527 1.261 1.261 0 0 0-.84.307 1.3 1.3 0 0 0-.473 1.005.938.938 0 0 1-1.874 0 3.175 3.175 0 0 1 1.14-2.445Z" fill="#fff"/></svg>