<svg width="36" height="36" fill="none" xmlns="http://www.w3.org/2000/svg"><path d="M25.773 22.635s.945-.151 1.632-.984c.852-1.033.59-2.255-.284-3.013 0 0-2.942-2.563-5.8-5.031l-.988.785c-7.291 5.63-9.884.742-9.238-.903l4.412-4.429c-2.264-.543-4.866 1.705-4.866 1.705l-5.21 3.411v11.372l4.407.285.347.203 1.794 1.31c1.563 1.062 3.888 1.398 5.127.49 0 0 2.53.876 4.073-.226.997-.712 1.029-1.206 1.084-1.191.671.175 2.218-.185 3.047-1.14 1.01-1.167.463-2.644.463-2.644Z" fill="#fff"/><path d="M16.245 9.46a233.467 233.467 0 0 0-4.353 4.45s-.257 1.806 2.216 2.217c2.571.428 5.83-2.488 7.227-3.735 0 0 6.17 5.377 6.592 5.733.454.383 1.36 1.772.528 3.53-.518 1.094-1.647 1.442-1.647 1.442s.251 1.394-.641 2.467c-.316.38-.928.87-.928.87 1.389.486 4.266.267 5.33-.886V13.563l-7.223-4.595c-4.773-3.135-6.837.227-7.101.492Zm18.3 3.477h-2.157a.91.91 0 0 0-.91.909v11.517a.91.91 0 0 0 .91.908h2.157c.503 0 .91-.407.91-.908V13.846a.909.909 0 0 0-.91-.909Zm-30.932 0H1.455a.91.91 0 0 0-.91.909v11.517c0 .501.407.908.91.908h2.158a.909.909 0 0 0 .909-.908V13.846a.91.91 0 0 0-.909-.909Z" fill="#fff"/></svg>