<svg width="252" height="58" fill="none" xmlns="http://www.w3.org/2000/svg"><path d="m53.889 27.126-4.442 4.475.548.553a3.59 3.59 0 0 1 1.044 2.538 3.612 3.612 0 0 1-1.044 2.539l-.83.836a3.503 3.503 0 0 1-2.491 1.046h-.24a3.613 3.613 0 0 1-1.022 2.71l-.83.836a3.526 3.526 0 0 1-2.49 1.054c-.08.005-.161.005-.242 0a3.571 3.571 0 0 1-1.02 2.786l-.83.836a3.532 3.532 0 0 1-2.492 1.054 4.203 4.203 0 0 1-.556-.058 3.72 3.72 0 0 1-1.062 2.509l-.83.836a3.64 3.64 0 0 1-2.491 1.071h-.075a3.375 3.375 0 0 1-2.416-.995l-.315-.318-1.843 1.848a4.053 4.053 0 0 1-2.873 1.197c-1.077 0-2.11-.43-2.872-1.197l-.332-.343a4.086 4.086 0 0 1-1.146-3.346c-.155.009-.31.009-.465 0a3.983 3.983 0 0 1-2.872-1.196l-.333-.343a4.069 4.069 0 0 1-1.137-3.346c-.166 0-.315.05-.473.05a4.078 4.078 0 0 1-2.873-1.195l-.332-.343a4.093 4.093 0 0 1-1.146-3.346 4.345 4.345 0 0 1-.473 0 4.027 4.027 0 0 1-2.872-1.196l-.324-.326a4.084 4.084 0 0 1-1.194-2.894 4.109 4.109 0 0 1 1.194-2.895l.365-.384-4.98-5.02L28.31 1.364l25.579 25.763Zm-5.737 3.204 3.171-3.204L32.494 8.122 20.871 19.891a3.15 3.15 0 0 0-.188 2.123 3.129 3.129 0 0 0 1.204 1.752 3.089 3.089 0 0 0 3.965-.312l7.721-7.896 11.474 11.593 3.105 3.179Zm.58 5.638a1.797 1.797 0 0 0 0-2.51l-5.562-5.62-9.613-9.72-6.492 6.616a4.87 4.87 0 0 1-2.508 1.323 4.847 4.847 0 0 1-2.815-.302 4.89 4.89 0 0 1-2.175-1.825 4.945 4.945 0 0 1-.805-2.734 5.051 5.051 0 0 1 .532-2.242l.174-.226L31.224 6.842 28.31 3.906 5.255 27.126l3.753 3.823.49-.494a4.051 4.051 0 0 1 2.872-1.203 4.025 4.025 0 0 1 2.873 1.203l.34.335a4.08 4.08 0 0 1 1.146 3.346c.156-.03.314-.047.473-.05a4.023 4.023 0 0 1 2.872 1.196l.332.343a4.077 4.077 0 0 1 1.138 3.346 4.047 4.047 0 0 1 3.362 1.179l.332.343a4.037 4.037 0 0 1 1.146 3.346A3.99 3.99 0 0 1 29.704 45l.341.327a4.135 4.135 0 0 1 .83 4.634l.498.502a1.578 1.578 0 0 0 1.187.468c.471-.012.919-.21 1.246-.552l.83-.837c.338-.333.535-.786.548-1.263a1.634 1.634 0 0 0-.465-1.196l-3.196-3.212-2.466-2.442 1.237-1.28 2.989 3.011.05-.05 2.889 2.894a1.77 1.77 0 0 0 2.49 0l.83-.836a1.839 1.839 0 0 0 0-2.551l-4.757-4.785-.83-.837 1.27-1.27 5.554 5.603a1.81 1.81 0 0 0 2.491 0l.83-.836a1.797 1.797 0 0 0 0-2.51l-5.612-5.654-.19-.192 1.294-1.188 5.812 5.855a1.778 1.778 0 0 0 2.49 0l.839-.836ZM28.809 49.853a2.317 2.317 0 0 0 0-3.254l-.332-.334a2.274 2.274 0 0 0-3.221 0l-2.126 2.15a2.318 2.318 0 0 0 0 3.245l.332.343a2.299 2.299 0 0 0 3.23 0l2.117-2.15Zm-4.823-4.86a2.284 2.284 0 0 0 .671-1.623 2.3 2.3 0 0 0-.671-1.622l-.324-.335a2.273 2.273 0 0 0-1.61-.673 2.259 2.259 0 0 0-1.611.673l-2.176 2.141a2.302 2.302 0 0 0-.685 1.644 2.314 2.314 0 0 0 .685 1.644l.34.326a2.275 2.275 0 0 0 3.222 0l2.125-2.133.034-.042Zm-4.84-4.843a2.317 2.317 0 0 0 0-3.245l-.34-.327a2.233 2.233 0 0 0-1.603-.677 2.252 2.252 0 0 0-1.62.669l-2.133 2.116a2.318 2.318 0 0 0 0 3.246l.34.334a2.265 2.265 0 0 0 1.611.677 2.252 2.252 0 0 0 1.61-.677l2.134-2.116Zm-4.816-4.852a2.318 2.318 0 0 0 0-3.245l-.34-.343a2.29 2.29 0 0 0-1.66-.66 2.258 2.258 0 0 0-1.603.66l-2.092 2.125a2.31 2.31 0 0 0 0 3.245l.332.343a2.282 2.282 0 0 0 3.221 0l2.126-2.15.016.025Zm53.597-12.546c0-12.999 19.145-12.999 19.145 0 0 12.998-19.145 13.024-19.145 0Zm14.263 0a4.757 4.757 0 0 0-1.243-3.562 4.66 4.66 0 0 0-6.87 0 4.734 4.734 0 0 0-1.243 3.562c0 6.817 9.356 6.817 9.356 0Zm16.928-9.645c3.86 0 8.045 2.125 8.767 7.144h-4.691a3.925 3.925 0 0 0-1.553-2.108 3.879 3.879 0 0 0-2.523-.652c-2.798 0-4.64 2.116-4.64 5.236 0 2.76 1.817 5.177 4.64 5.21a3.946 3.946 0 0 0 2.628-.75 3.998 3.998 0 0 0 1.523-2.286h4.691c-.698 5.32-4.882 7.412-8.85 7.412-4.75 0-9.548-3.196-9.573-9.586-.025-6.39 4.832-9.62 9.581-9.62Zm24.815 9.243a4.063 4.063 0 0 1 1.688 1.584c.398.682.59 1.466.553 2.256 0 3.279-2 5.93-5.811 5.93h-8.742V13.325h7.97a5.684 5.684 0 0 1 4.107 1.658 5.77 5.77 0 0 1 1.704 4.113 4.518 4.518 0 0 1-1.469 3.254Zm-7.705-4.726v3.037h3.014c1.893 0 1.893-3.037 0-3.037h-3.014Zm0 7.035v3.195h3.811c1.918 0 1.893-3.195 0-3.195h-3.811Zm12.528-1.907c0-12.999 19.095-12.999 19.095 0 0 12.998-19.095 13.024-19.095 0Zm14.263 0a4.755 4.755 0 0 0-1.243-3.562 4.66 4.66 0 0 0-6.87 0 4.736 4.736 0 0 0-1.243 3.562c0 6.817 9.356 6.817 9.356 0Zm16.687-2.844c8.925 0 8.925 12.187 0 12.212h-8.21V13.325h13.407v4.3h-8.642v2.283h3.445Zm-3.445 4.24v3.68h3.412a1.821 1.821 0 0 0 1.409-.471 1.85 1.85 0 0 0 .443-2.116 1.844 1.844 0 0 0-1.098-1.006 1.823 1.823 0 0 0-.754-.087h-3.412Zm12.586-1.396c0-12.999 19.136-12.999 19.136 0 0 12.998-19.136 13.024-19.136 0Zm14.254 0a4.737 4.737 0 0 0-.236-1.927 4.704 4.704 0 0 0-2.552-2.798 4.66 4.66 0 0 0-5.339 1.13 4.723 4.723 0 0 0-.985 1.668 4.771 4.771 0 0 0-.236 1.927c0 6.817 9.348 6.817 9.348 0Zm10.104 11.492h-3.919v-6.281h1.893l6.409-14.881h2.051l6.642 14.88h1.942v6.282h-3.993v-2.066h-11.042l.017 2.066Zm2.773-6.34h5.28l-2.69-6.792-2.59 6.792Zm16.313 4.25h-1.702v-18.83h4.874v9.202l9.439-9.285h1.743v18.88h-4.981v-9.202l-9.373 9.235Zm35.583-18.88h1.71V32.12h-4.882v-8.365l-3.968 4.183h-.531l-3.944-4.183v8.365h-4.881V13.274h1.76l7.305 8.164 7.431-8.164ZM69.272 42.61h.83a4.03 4.03 0 0 1 1.412-1.983 3.304 3.304 0 0 1 1.801-.544 3.305 3.305 0 0 1 1.756.623c.514.372.912.885 1.147 1.478a3.37 3.37 0 0 1-.67 3.537 3.079 3.079 0 0 1-2.274.953 3.306 3.306 0 0 1-2.15-.786 2.874 2.874 0 0 1-1.072-2.116h-.83v2.743h-1.145v-6.273h1.178l.017 2.367Zm6.06.777a2.184 2.184 0 0 0-.58-1.497 1.911 1.911 0 0 0-1.47-.636 1.994 1.994 0 0 0-1.903 1.301c-.102.268-.15.554-.14.84a2.023 2.023 0 0 0 .615 1.54c.386.38.905.59 1.445.585a1.905 1.905 0 0 0 1.42-.619 2.101 2.101 0 0 0 .614-1.514Zm4.035-3.145h1.262c.497-.028.995.034 1.47.184.297.124.547.341.714.619.179.306.268.657.257 1.012.019.394-.102.782-.34 1.096a1.75 1.75 0 0 1-.922.61 5.853 5.853 0 0 1-1.253.092v2.66h-1.188v-6.273Zm1.163 2.417h.382c.207.01.414-.013.614-.067a.532.532 0 0 0 .274-.209.631.631 0 0 0 .1-.36.564.564 0 0 0-.283-.527 1.55 1.55 0 0 0-.755-.125h-.332v1.288Zm9.962-2.417v6.274h-1.187v-3.932l-2.325 3.932h-1.03v-6.274h1.221v4.09l2.358-4.056.963-.034Zm5.198 0h1.195l2.009 5.153h.73v2.066h-1.153v-.945h-4.284v.945h-1.204v-2.066h.689l2.017-5.153Zm.605 1.673-1.361 3.488h2.723l-1.362-3.488Zm10.328-1.673v6.274h-1.187v-3.932l-2.325 3.932h-.996v-6.274h1.187v4.09l2.358-4.056.963-.034Zm5.895 3.522h-.399a5.963 5.963 0 0 1-1.27-.092 1.934 1.934 0 0 1-.781-.377 1.675 1.675 0 0 1-.531-.71 3.357 3.357 0 0 1-.149-1.105v-1.238h1.203v1.221c-.031.316.048.633.225.895.283.206.633.296.979.251h.723v-2.367h1.22v6.274h-1.187l-.033-2.752Zm4.358-3.522h3.396v1.163h-2.225v1.137h2.225v1.146h-2.225v1.673h2.225v1.171h-3.396v-6.29Zm11.963 1.096-.83.836a2.569 2.569 0 0 0-1.909-.903 1.993 1.993 0 0 0-1.503.619 2.059 2.059 0 0 0-.614 1.514c-.007.388.087.772.274 1.112.177.325.441.592.763.77.339.186.719.281 1.105.276.322.003.642-.063.938-.193.353-.181.673-.422.946-.71l.83.836a4.446 4.446 0 0 1-1.303.945c-.445.182-.923.27-1.403.26a3.202 3.202 0 0 1-2.433-.954 3.206 3.206 0 0 1-.929-2.376 3.273 3.273 0 0 1 .423-1.673 3.13 3.13 0 0 1 1.204-1.17 3.373 3.373 0 0 1 1.66-.444 3.59 3.59 0 0 1 2.715 1.255h.066Zm2.781-1.096h1.212V42.4l1.661-2.158h1.42l-2.176 2.802 2.416 3.472h-1.411l-1.91-2.786v2.786h-1.203l-.009-6.274Zm9.017 0h1.203l2.391 6.274h-1.228l-.49-1.288h-2.541l-.498 1.288h-1.245l2.408-6.274Zm.606 1.673-.831 2.15h1.661l-.83-2.15Zm9.314-1.673v6.274h-1.187v-2.51h-.299l-1.253 2.51h-1.295l1.411-2.719a1.553 1.553 0 0 1-.931-.6 1.578 1.578 0 0 1-.298-1.073 2.333 2.333 0 0 1 .133-.836 1.536 1.536 0 0 1 .938-.87 2.48 2.48 0 0 1 .498-.134h1.038l1.245-.042Zm-1.187 2.585v-1.422h-.323a2.691 2.691 0 0 0-.64.058.515.515 0 0 0-.315.226.757.757 0 0 0-.125.444.595.595 0 0 0 .241.535c.244.124.516.18.789.159h.373Zm8.518-2.585h1.196V42.4l1.66-2.158h1.42l-2.175 2.802 2.391 3.472h-1.412l-1.918-2.786v2.786h-1.195l.033-6.274Zm10.046-.159a3.065 3.065 0 0 1 2.258.962 3.237 3.237 0 0 1 .954 2.35 3.19 3.19 0 0 1-.954 2.326 3.234 3.234 0 0 1-4.616 0 3.354 3.354 0 0 1-.9-1.905 3.372 3.372 0 0 1 .41-2.068 3.09 3.09 0 0 1 1.187-1.197 3.114 3.114 0 0 1 1.661-.468Zm0 1.171a1.96 1.96 0 0 0-1.462.602 2.12 2.12 0 0 0-.589 1.54 2.013 2.013 0 0 0 .747 1.672c.369.314.838.483 1.32.477a1.91 1.91 0 0 0 1.436-.619 2.218 2.218 0 0 0 0-3.028 1.938 1.938 0 0 0-1.461-.644h.009Zm6.683-1.012h1.162l1.444 4.375 1.453-4.375h1.154l1.046 6.274h-1.145l-.664-3.965-1.329 3.965h-1.046l-1.312-3.965-.68 3.965h-1.188l1.105-6.274Zm8.933 0h4.483v6.274h-1.196v-5.161h-2.083v5.16h-1.204v-6.273Zm9.547 0h1.171l2.399 6.274h-1.237l-.49-1.288h-2.54l-.507 1.288h-1.237l2.441-6.274Zm.606 1.673-.83 2.15h1.66l-.83-2.15Zm5.645-1.673h1.204v2.367h2.076v-2.367h1.195v6.274h-1.195v-2.752h-2.076v2.752h-1.204v-6.274Zm12.171 0v6.274h-1.179v-3.932l-2.324 3.932h-1.038v-6.274h1.187v4.09l2.358-4.056.996-.034Zm6.825 0v6.273h-1.188v-2.51h-.298l-1.254 2.51h-1.295l1.411-2.718a1.547 1.547 0 0 1-.928-.602 1.563 1.563 0 0 1-.292-1.071 2.33 2.33 0 0 1 .124-.837 1.526 1.526 0 0 1 .922-.928c.164-.061.334-.106.506-.134h1.03l1.262.017Zm-1.188 2.585v-1.422h-.323a2.744 2.744 0 0 0-.64.058.531.531 0 0 0-.315.226.757.757 0 0 0-.125.443.57.57 0 0 0 .249.535c.241.126.511.181.781.16h.373Z" fill="#307FE2"/></svg>